<mxfile host="app.diagrams.net" modified="2023-06-08T11:42:52.065Z" agent="Mozilla/5.0 (Windows NT 10.0; Win64; x64) AppleWebKit/537.36 (KHTML, like Gecko) Chrome/114.0.0.0 Safari/537.36 Edg/114.0.1823.37" etag="MhfETejsRzTHG7RauKC9" version="21.3.2" type="github">
  <diagram name="第 1 页" id="11mHXDI1hxxGPouuC6vA">
    <mxGraphModel dx="1386" dy="806" grid="1" gridSize="10" guides="1" tooltips="1" connect="1" arrows="1" fold="1" page="1" pageScale="1" pageWidth="827" pageHeight="1169" math="0" shadow="0">
      <root>
        <mxCell id="0" />
        <mxCell id="1" parent="0" />
        <mxCell id="LwiUL_QHweqGwDbJVOeg-6" style="edgeStyle=orthogonalEdgeStyle;rounded=0;orthogonalLoop=1;jettySize=auto;html=1;" edge="1" parent="1" source="LwiUL_QHweqGwDbJVOeg-1" target="LwiUL_QHweqGwDbJVOeg-2">
          <mxGeometry relative="1" as="geometry" />
        </mxCell>
        <mxCell id="LwiUL_QHweqGwDbJVOeg-11" value="&lt;font style=&quot;font-size: 14px;&quot;&gt;访问微信公众号&lt;/font&gt;" style="edgeLabel;html=1;align=center;verticalAlign=middle;resizable=0;points=[];" vertex="1" connectable="0" parent="LwiUL_QHweqGwDbJVOeg-6">
          <mxGeometry x="-0.122" relative="1" as="geometry">
            <mxPoint as="offset" />
          </mxGeometry>
        </mxCell>
        <mxCell id="LwiUL_QHweqGwDbJVOeg-1" value="" style="points=[[0.03,0.03,0],[0.5,0,0],[0.97,0.03,0],[1,0.4,0],[0.97,0.745,0],[0.5,1,0],[0.03,0.745,0],[0,0.4,0]];verticalLabelPosition=bottom;sketch=0;html=1;verticalAlign=top;aspect=fixed;align=center;pointerEvents=1;shape=mxgraph.cisco19.workstation;fillColor=#005073;strokeColor=none;" vertex="1" parent="1">
          <mxGeometry x="90" y="300" width="125" height="100" as="geometry" />
        </mxCell>
        <mxCell id="LwiUL_QHweqGwDbJVOeg-7" style="rounded=0;orthogonalLoop=1;jettySize=auto;html=1;entryX=0;entryY=0.5;entryDx=0;entryDy=0;" edge="1" parent="1" target="LwiUL_QHweqGwDbJVOeg-3">
          <mxGeometry relative="1" as="geometry">
            <mxPoint x="469" y="350" as="sourcePoint" />
          </mxGeometry>
        </mxCell>
        <mxCell id="LwiUL_QHweqGwDbJVOeg-8" style="edgeStyle=orthogonalEdgeStyle;rounded=0;orthogonalLoop=1;jettySize=auto;html=1;" edge="1" parent="1" source="LwiUL_QHweqGwDbJVOeg-2" target="LwiUL_QHweqGwDbJVOeg-4">
          <mxGeometry relative="1" as="geometry" />
        </mxCell>
        <mxCell id="LwiUL_QHweqGwDbJVOeg-9" style="rounded=0;orthogonalLoop=1;jettySize=auto;html=1;entryX=0;entryY=0.5;entryDx=0;entryDy=0;" edge="1" parent="1" target="LwiUL_QHweqGwDbJVOeg-5">
          <mxGeometry relative="1" as="geometry">
            <mxPoint x="469" y="350" as="sourcePoint" />
          </mxGeometry>
        </mxCell>
        <mxCell id="LwiUL_QHweqGwDbJVOeg-2" value="" style="sketch=0;pointerEvents=1;shadow=0;dashed=0;html=1;strokeColor=none;fillColor=#505050;labelPosition=center;verticalLabelPosition=bottom;verticalAlign=top;outlineConnect=0;align=center;shape=mxgraph.office.servers.reverse_proxy;" vertex="1" parent="1">
          <mxGeometry x="379" y="300" width="88" height="100" as="geometry" />
        </mxCell>
        <mxCell id="LwiUL_QHweqGwDbJVOeg-3" value="" style="image;html=1;image=img/lib/clip_art/computers/Server_Tower_128x128.png" vertex="1" parent="1">
          <mxGeometry x="579" y="150" width="80" height="80" as="geometry" />
        </mxCell>
        <mxCell id="LwiUL_QHweqGwDbJVOeg-4" value="" style="image;html=1;image=img/lib/clip_art/computers/Server_Tower_128x128.png" vertex="1" parent="1">
          <mxGeometry x="589" y="310" width="80" height="80" as="geometry" />
        </mxCell>
        <mxCell id="LwiUL_QHweqGwDbJVOeg-5" value="" style="image;html=1;image=img/lib/clip_art/computers/Server_Tower_128x128.png" vertex="1" parent="1">
          <mxGeometry x="579" y="480" width="80" height="80" as="geometry" />
        </mxCell>
        <mxCell id="LwiUL_QHweqGwDbJVOeg-10" value="&lt;b&gt;&lt;font style=&quot;font-size: 29px;&quot;&gt;反向代理（Reverse Proxy）&lt;/font&gt;&lt;/b&gt;" style="text;html=1;align=center;verticalAlign=middle;resizable=0;points=[];autosize=1;strokeColor=none;fillColor=none;" vertex="1" parent="1">
          <mxGeometry x="180" y="40" width="400" height="50" as="geometry" />
        </mxCell>
      </root>
    </mxGraphModel>
  </diagram>
</mxfile>
